Coordinates
version=1
nRows=19
nColumns=36
inDegrees=yes

Units are S.I. units (second, meters, Newtons, ...)
If the header above contains a line with 'inDegrees', this indicates whether rotational values are in degrees (yes) or radians (no).

endheader
time	pelvis_tilt	pelvis_list	pelvis_rotation	pelvis_tx	pelvis_ty	pelvis_tz	hip_flexion_r	hip_adduction_r	hip_rotation_r	knee_angle_r	knee_angle_r_beta	ankle_angle_r	subtalar_angle_r	mtp_angle_r	hip_flexion_l	hip_adduction_l	hip_rotation_l	knee_angle_l	knee_angle_l_beta	ankle_angle_l	subtalar_angle_l	mtp_angle_l	lumbar_extension	lumbar_bending	lumbar_rotation	arm_flex_r	arm_add_r	arm_rot_r	elbow_flex_r	pro_sup_r	arm_flex_l	arm_add_l	arm_rot_l	elbow_flex_l	pro_sup_l
      0.60000000	      2.94729786	      7.27818346	     96.93250922	     -0.28572892	      0.91860457	      0.75977541	     23.42363177	     -0.01716616	    -17.48458822	     23.25314808	      0.40584400	     -5.34365912	     -5.72792510	     -7.49998353	    -27.16324907	     -7.07822428	    -10.38356891	     25.75570042	      0.44952177	    -17.85860647	     11.69737002	     -7.49998353	    -15.42214382	      6.32857013	     -7.58129972	     -9.64688990	     -2.15041649	    -38.27976776	     37.53803176	     92.19965899	      8.40840821	     -5.68150731	    -15.57780985	     50.59731296	     82.54108128
      0.61000000	      3.97949136	      7.37919021	     96.74241588	     -0.28337076	      0.91976625	      0.74258356	     23.26367656	      1.55285264	    -15.61655468	     24.75613704	      0.43207610	     -5.51069052	     -8.15489085	     -7.49998427	    -26.48085785	     -8.61767187	    -10.39588759	     27.59393817	      0.48160507	    -23.10785604	     11.11220625	     -7.49998427	    -15.29830198	      7.35809291	     -7.27693950	     -9.24186075	     -2.40015257	    -37.95253764	     36.51481446	     92.09974219	      7.75910234	     -5.38430478	    -16.06477261	     49.93924949	     82.34749980
      0.62000000	      4.72134489	      7.45185578	     96.62007130	     -0.28168269	      0.92105554	      0.72557757	     22.99313364	      2.84358311	    -13.89179740	     26.18440300	      0.45700404	     -4.75998468	    -10.57403812	     -7.49998488	    -25.57805994	     -9.60397937	     -9.34822425	     29.64255227	      0.51736014	    -26.86776950	     10.36894405	     -7.49998488	    -15.19815868	      8.18841853	     -6.99982228	     -8.94916434	     -2.62662379	    -37.66195412	     35.97487309	     91.77561145	      7.16621456	     -5.05049962	    -16.40819530	     49.24108261	     82.02132969
      0.63000000	      5.45534812	      7.23996255	     95.98725805	     -0.27945396	      0.92208405	      0.70950814	     22.82062012	      4.62030101	    -10.88224227	     26.98803449	      0.47103006	     -5.36825271	    -15.17808259	     -7.49998923	    -24.14766733	    -10.33870839	     -8.78918445	     32.26651360	      0.56315690	    -30.31453671	      8.27671355	     -7.49998923	    -15.02466654	      8.86683393	     -6.24095632	     -8.36276502	     -2.82864267	    -38.20873653	     35.24692633	     97.30300366	      6.75603656	     -4.14418754	    -18.52284049	     48.36621161	     85.56653359
      0.64000000	      5.89385015	      7.45312461	     95.80622018	     -0.27806561	      0.92395951	      0.69356861	     21.95712385	      5.72063497	     -9.31783038	     27.69987247	      0.48345398	     -4.13194177	    -16.41501459	     -7.49998958	    -22.94951698	    -10.96347124	     -7.97563946	     35.07303779	      0.61213999	    -33.80297310	      5.74843086	     -7.49998958	    -15.29284905	      9.32897094	     -5.86157492	     -7.94896284	     -3.00859136	    -37.91697646	     34.92657456	     96.97214259	      6.35226741	     -3.92849398	    -18.75142945	     47.51189522	     85.37433389
      0.65000000	      6.40269285	      7.36615435	     95.69064389	     -0.27693984	      0.92584122	      0.67822113	     21.15149586	      6.75949639	     -8.21804301	     27.82341239	      0.48561016	     -3.31286574	    -17.77989673	     -7.49998998	    -21.12428397	    -11.70382979	     -7.22235958	     38.31076159	      0.66864893	    -36.30602987	      2.63920241	     -7.49998998	    -15.25070633	      9.86682973	     -5.36992622	     -7.59282213	     -3.27318047	    -37.56859775	     34.56240709	     96.73137761	      6.12635119	     -3.46643516	    -19.31134528	     46.41110813	     85.19273685
      0.66000000	      6.80742476	      7.38908178	     95.66841160	     -0.27583460	      0.92849726	      0.66348075	     19.98986530	      7.50990690	     -7.94324944	     27.45625907	      0.47920212	     -2.44722612	    -18.11863501	     -7.49999031	    -19.17197197	    -12.23191482	     -6.21169914	     41.67877483	      0.72743185	    -37.83736693	     -0.32062555	     -7.49999031	    -15.42921575	     10.28126968	     -4.97331962	     -7.07434754	     -3.45065575	    -37.30299097	     34.23504562	     96.53226901	      5.99335913	     -3.19202929	    -19.72130218	     45.18735530	     85.04377078
      0.67000000	      7.10710529	      7.48144619	     95.66232798	     -0.27492280	      0.93160163	      0.64925563	     18.59905157	      8.08270619	     -7.98934217	     26.75443761	      0.46695303	     -1.62823899	    -17.91781030	     -7.49999060	    -17.20455423	    -12.59484799	     -5.21469325	     44.97470497	      0.78495668	    -38.34875001	     -2.95253489	     -7.49999060	    -15.73694882	     10.56038354	     -4.47936894	     -6.46279497	     -3.63581916	    -37.05578429	     33.80433416	     96.35673845	      6.02567554	     -2.91030447	    -20.13049142	     43.89753750	     84.91739017
      0.68000000	      7.06768720	      7.26682772	     95.83672852	     -0.27457595	      0.93452532	      0.63561879	     17.59416577	      8.06650316	     -8.52769005	     26.24606729	      0.45808029	     -0.90339429	    -16.98923381	     -7.49999114	    -14.68094216	    -12.41795194	     -3.93221802	     48.31060571	      0.84317913	    -37.40297806	     -5.25710773	     -7.49999114	    -15.71023623	     10.47823646	     -4.12295910	     -5.94986644	     -3.75458264	    -36.85224462	     33.52202543	     95.99022868	      6.17424748	     -2.48751952	    -20.77895866	     42.50949739	     84.70723361
      0.69000000	      6.95854645	      7.32525670	     95.61761648	     -0.27386624	      0.93813984	      0.62165068	     16.14548552	      8.10226546	     -8.78282277	     25.54667727	      0.44587363	      0.21218817	    -15.95962735	     -7.49999153	    -12.66924843	    -12.02928055	     -3.26006395	     51.26322128	      0.89471200	    -35.24260249	     -7.11835247	     -7.49999153	    -15.95492940	     10.26343344	     -3.49245609	     -5.34315715	     -3.93475285	    -36.53153283	     33.17745051	     95.60962891	      6.11115272	     -2.27870613	    -21.04105791	     41.26116925	     84.46057192
      0.70000000	      6.64774134	      7.02806890	     95.72703432	     -0.27371317	      0.94152760	      0.60844589	     15.16162408	      7.70911074	     -9.57972520	     25.02295625	      0.43673298	      0.99899686	    -14.16321893	     -7.49999226	    -10.02808512	    -11.40717900	     -2.34505004	     54.19357574	      0.94585633	    -32.29503186	     -8.83207905	     -7.49999226	    -15.88049327	      9.85139369	     -3.15104163	     -4.77815776	     -4.05256810	    -36.35240001	     32.94665455	     95.61473777	      6.18635618	     -1.92927120	    -21.94623692	     39.83940146	     84.54031391
      0.71000000	      6.43244640	      7.05433137	     95.83789927	     -0.27330009	      0.94543443	      0.59507888	     13.65738507	      7.51651840	    -10.34852149	     24.07445877	      0.42017857	      1.63669570	    -12.66874016	     -7.49999267	     -7.76929569	    -10.94372471	     -1.61013667	     56.82222611	      0.99173493	    -28.67274577	    -10.21686009	     -7.49999267	    -16.09773481	      9.51155101	     -2.75230634	     -4.19787089	     -4.15825215	    -36.07004276	     32.73687069	     95.40390826	      6.11187756	     -1.88027457	    -22.10973830	     38.77486888	     84.43496530
      0.72000000	      6.17401224	      6.94264790	     96.00498595	     -0.27302594	      0.94902563	      0.58157791	     12.34582148	      7.25121183	    -11.16771835	     23.24994863	      0.40578815	      2.43003280	    -11.11092537	     -7.49999308	     -5.35921068	    -10.44583745	     -1.06603656	     59.30457711	      1.03506013	    -24.04446136	    -11.28446821	     -7.49999308	    -16.04985424	      9.11061878	     -2.55188704	     -3.66119601	     -4.24159199	    -35.69464991	     32.57898523	     95.14644996	      5.86754879	     -1.88406223	    -22.24303541	     37.70741691	     84.24125522
      0.73000000	      5.76988142	      6.77811560	     96.23359485	     -0.27291405	      0.95244358	      0.56809201	     11.07853913	      6.87832949	    -11.77362879	     22.41498588	      0.39121531	      3.14613013	     -9.81775270	     -7.49999339	     -2.86926897	     -9.66795200	     -0.40006698	     61.50236890	      1.07341884	    -20.03129466	    -12.54660783	     -7.49999339	    -15.96647237	      8.56193696	     -2.39616604	     -3.17744110	     -4.28050418	    -35.45861472	     32.56447073	     95.00817337	      5.56804967	     -1.95336668	    -22.41547562	     36.88271496	     84.12483025
      0.74000000	      5.22638917	      6.60095779	     96.24552021	     -0.27248486	      0.95580604	      0.55488256	      9.78695515	      6.45291549	    -11.92849346	     21.45666441	      0.37448944	      3.69381401	     -8.85995327	     -7.49999355	     -0.53122665	     -8.85336148	     -0.33740403	     63.13616215	      1.10193391	    -16.91885052	    -13.93728857	     -7.49999355	    -15.95225058	      7.78441868	     -2.10169443	     -2.69712773	     -4.26068028	    -35.23798569	     32.76888628	     94.87029271	      5.14164795	     -2.07038614	    -22.53296743	     36.32880891	     83.99126787
      0.75000000	      4.81762616	      6.18429219	     96.46554942	     -0.27212985	      0.95843955	      0.54189206	      8.87537181	      6.03663112	    -12.70347690	     20.70199888	      0.36131804	      4.14316578	     -7.37494940	     -7.49999374	      2.16421300	     -8.15317096	     -0.16019895	     64.63374274	      1.12807162	    -14.05335742	    -15.61555819	     -7.49999374	    -15.61216351	      7.16175624	     -2.02591655	     -2.25042092	     -4.27717346	    -34.82777947	     32.90520146	     95.04783720	      4.76119852	     -2.26393657	    -22.78849629	     35.54899280	     83.98423326
      0.76000000	      4.22312408	      5.85371158	     96.28827366	     -0.27137862	      0.96131644	      0.52835341	      7.69840521	      5.59069965	    -12.71454990	     19.62954764	      0.34260024	      4.54422419	     -6.44537684	     -7.49999381	      4.34838437	     -7.29957818	     -0.54797266	     65.38607145	      1.14120223	    -11.56235216	    -17.45706991	     -7.49999381	    -15.37972595	      6.29350905	     -1.74646731	     -1.78184127	     -4.25602062	    -34.54919170	     33.20731054	     95.25963240	      4.17082516	     -2.51379694	    -23.04935147	     35.05178585	     84.04032987
      0.77000000	      3.62089079	      5.59119047	     96.20226476	     -0.27028410	      0.96385813	      0.51527713	      6.56170964	      5.17800588	    -12.66090040	     18.67852879	      0.32600183	      4.88347790	     -5.86236156	     -7.49999384	      6.51064836	     -6.60362416	     -1.09443847	     65.93885481	      1.15085012	     -9.49099631	    -18.87658833	     -7.49999384	    -15.29728982	      5.34225153	     -1.44542547	     -1.32074807	     -4.10911923	    -34.28032502	     33.54925488	     95.38516081	      3.68335365	     -2.89306822	    -23.29731857	     34.72978463	     84.04132206
      0.78000000	      3.17997163	      4.99973394	     96.01275971	     -0.26970578	      0.96544817	      0.50219178	      5.91235949	      4.80084096	    -12.72080367	     17.95721945	      0.31341260	      5.43267125	     -4.77012667	     -7.49999394	      8.93432184	     -6.06331151	     -1.76144867	     66.17684790	      1.15500388	     -7.15620567	    -20.39168856	     -7.49999394	    -14.77817765	      4.69065906	     -1.19843489	     -1.02819990	     -4.22580950	    -33.81282558	     34.19828054	     95.57772578	      2.92834412	     -3.07705478	    -23.69980220	     34.49368397	     84.01592440
